<?xml version="1.0" encoding="UTF-8" standalone="no"?>
<!-- Created with Inkscape (http://www.inkscape.org/) -->

<svg
   width="400"
   height="400"
   viewBox="0 0 105.83333 105.83333"
   version="1.1"
   id="svg5"
   xml:space="preserve"
   inkscape:version="1.2.1 (9c6d41e410, 2022-07-14)"
   sodipodi:docname="crossbow.svg.svg"
   xmlns:inkscape="http://www.inkscape.org/namespaces/inkscape"
   xmlns:sodipodi="http://sodipodi.sourceforge.net/DTD/sodipodi-0.dtd"
   xmlns="http://www.w3.org/2000/svg"
   xmlns:svg="http://www.w3.org/2000/svg"><sodipodi:namedview
     id="namedview7"
     pagecolor="#505050"
     bordercolor="#ffffff"
     borderopacity="1"
     inkscape:showpageshadow="0"
     inkscape:pageopacity="0"
     inkscape:pagecheckerboard="1"
     inkscape:deskcolor="#505050"
     inkscape:document-units="mm"
     showgrid="false"
     inkscape:zoom="1.3160427"
     inkscape:cx="141.71273"
     inkscape:cy="189.96344"
     inkscape:window-width="1920"
     inkscape:window-height="1015"
     inkscape:window-x="0"
     inkscape:window-y="0"
     inkscape:window-maximized="1"
     inkscape:current-layer="svg5" /><defs
     id="defs2" /><path
     style="fill:#000000;stroke:#000000;stroke-width:0.264583px;stroke-linecap:butt;stroke-linejoin:miter;stroke-opacity:1;opacity:0.36"
     d="M 103.65466,9.4622461 54.917997,32.557238 1.0371273,13.145698 c 1.7396359,19.299405 -3.7431305,36.843353 14.5930017,60.176658 21.249552,21.634859 47.95224,23.08608 74.394725,25.500386 L 71.49304,46.001514 104.88137,13.611307 Z"
     id="path4867"
     sodipodi:nodetypes="cccccccc" /><g
     inkscape:groupmode="layer"
     id="layer2"
     inkscape:label="Layer 2"
     style="opacity:0.99999999"><path
       style="opacity:0.89;fill:#808080;stroke:#000000;stroke-width:0.264583px;stroke-linecap:butt;stroke-linejoin:miter;stroke-opacity:1"
       d="M 26.586732,66.654429 66.980487,41.694366 99.044804,17.146258 22.498569,66.651288 Z"
       id="path4649"
       sodipodi:nodetypes="ccccc" /><path
       style="fill:#800000;stroke:#000000;stroke-width:0.264583px;stroke-linecap:butt;stroke-linejoin:miter;stroke-opacity:1;opacity:1"
       d="M 100.74656,11.043181 21.083238,65.488039 C 8.3513558,50.124634 7.2627678,33.051565 3.3753512,16.389466 1.3919862,36.006237 -0.20888523,55.530593 19.834467,69.825406 38.911257,90.92733 65.275624,91.918743 90.259187,96.720571 67.677472,87.76903 43.755209,80.651286 23.745717,68.181087 L 102.60541,14.658463 c 2.00542,-4.588777 -0.34949,-3.557068 -1.85885,-3.615282 z"
       id="path4545"
       sodipodi:nodetypes="cccccccc" /><path
       style="fill:#4d4d4d;stroke:#000000;stroke-width:0.264583px;stroke-linecap:butt;stroke-linejoin:miter;stroke-opacity:1;opacity:0.54"
       d="M 3.4854567,18.808584 60.215967,41.351281 88.273185,94.653776 58.740081,42.261976 Z"
       id="path4647"
       sodipodi:nodetypes="ccccc" /><path
       style="fill:#550000;stroke:#000000;stroke-width:0.264583px;stroke-linecap:butt;stroke-linejoin:miter;stroke-opacity:1"
       d="M 70.024654,32.348475 52.919368,44.725741 c -1.35507,2.367681 0.77238,1.740089 2.169787,1.740397 L 71.791689,34.752464 Z"
       id="path4651"
       sodipodi:nodetypes="ccccc" /></g></svg>
