<?xml version="1.0" encoding="UTF-8" standalone="no"?>
<!-- Created with Inkscape (http://www.inkscape.org/) -->

<svg
   width="400"
   height="400"
   viewBox="0 0 105.83333 105.83333"
   version="1.1"
   id="svg331"
   xml:space="preserve"
   inkscape:version="1.2.1 (9c6d41e410, 2022-07-14)"
   sodipodi:docname="wagon.svg"
   xmlns:inkscape="http://www.inkscape.org/namespaces/inkscape"
   xmlns:sodipodi="http://sodipodi.sourceforge.net/DTD/sodipodi-0.dtd"
   xmlns="http://www.w3.org/2000/svg"
   xmlns:svg="http://www.w3.org/2000/svg"><sodipodi:namedview
     id="namedview333"
     pagecolor="#505050"
     bordercolor="#ffffff"
     borderopacity="1"
     inkscape:showpageshadow="0"
     inkscape:pageopacity="0"
     inkscape:pagecheckerboard="1"
     inkscape:deskcolor="#505050"
     inkscape:document-units="mm"
     showgrid="false"
     inkscape:zoom="1.352586"
     inkscape:cx="91.676238"
     inkscape:cy="198.13897"
     inkscape:window-width="1920"
     inkscape:window-height="1015"
     inkscape:window-x="0"
     inkscape:window-y="0"
     inkscape:window-maximized="1"
     inkscape:current-layer="layer2" /><defs
     id="defs328" /><g
     inkscape:groupmode="layer"
     id="layer2"
     inkscape:label="top"
     style="opacity:1"><path
       style="fill:#000000;fill-opacity:0.42371994;stroke:none;stroke-width:0.264583px;stroke-linecap:butt;stroke-linejoin:miter;stroke-opacity:0.731015"
       d="M 43.63947,70.219995 C 37.57381,81.57572 54.392953,108.27662 75.200184,81.502051 105.94613,89.113027 108.65427,51.494615 88.179611,47.775297 92.181367,37.582492 93.714092,25.995584 84.673121,15.071795 L 16.62504,13.914188 C 4.3107019,21.4391 -1.511123,31.460602 9.7618186,48.055619 L 9.33853,55.9227 C -4.125688,64.476354 -2.0803204,81.983953 9.6979734,88.457486 21.476267,94.931019 37.11718,94.537687 38.124489,69.743282 Z"
       id="path9663"
       sodipodi:nodetypes="ccccccczcc" /><path
       style="fill:#cccccc;stroke:#000000;stroke-width:0.301155px;stroke-linecap:butt;stroke-linejoin:miter;stroke-opacity:1"
       d="M 84.884073,48.650768 87.670186,22.196476 C 80.703046,18.649058 49.062318,39.67736 66.842101,54.480154 Z"
       id="path8164"
       sodipodi:nodetypes="cccc" /><path
       style="fill:none;stroke:#2b0000;stroke-width:4.065;stroke-linecap:butt;stroke-linejoin:miter;stroke-dasharray:none;stroke-opacity:1"
       d="M 84.254175,51.892554 C 101.73457,51.641112 98.634036,77.681031 82.496371,77.815685 66.358706,77.950339 66.773776,52.143996 84.254175,51.892554 Z"
       id="path8042-7"
       sodipodi:nodetypes="zzz" /><path
       sodipodi:type="star"
       style="opacity:0.9;fill:#2b0000;fill-opacity:1;stroke:#2b0000;stroke-width:2.465;stroke-dasharray:none"
       id="path8100-3-5"
       inkscape:flatsided="false"
       sodipodi:sides="14"
       sodipodi:cx="11.995655"
       sodipodi:cy="68.692337"
       sodipodi:r1="15.043927"
       sodipodi:r2="0.13592014"
       sodipodi:arg1="-0.028391851"
       sodipodi:arg2="-0.93034338"
       inkscape:rounded="0"
       inkscape:randomized="0"
       d="M 27.033519,68.265269 12.076875,68.583353 25.7296,74.832247 12.116118,68.629386 21.705505,80.18314 12.131502,68.687887 15.758255,83.258139 12.11998,68.74727 9.0657756,83.448202 12.083834,68.795772 2.953595,80.715685 12.030222,68.823788 -1.3676947,75.601796 11.969765,68.825769 -3.0422091,69.119405 11.914435,68.801321 -1.7382901,62.552427 11.875192,68.755288 2.2858052,57.201534 11.859808,68.696787 8.2330554,54.126535 11.87133,68.637404 14.925535,53.936472 11.907477,68.588902 21.037715,56.668989 11.961088,68.560886 25.359005,61.782878 12.021546,68.558906 Z"
       transform="translate(71.538101,-3.8223018)" /><path
       style="display:inline;opacity:1;fill:#ffffff;fill-opacity:1;stroke:#000000;stroke-width:0.96500002;stroke-linecap:butt;stroke-linejoin:miter;stroke-opacity:1;image-rendering:auto;stroke-dasharray:none"
       d="M 14.720485,49.549848 65.01237,52.487385 C 73.392867,24.971774 90.942165,10.851545 84.433323,48.952101 88.616887,36.942498 90.859754,19.213558 79.855561,18.628704 L 19.452599,17.07492 c -19.84977886,9.847411 -6.296117,25.803775 -4.732114,32.474928 z"
       id="path4203"
       sodipodi:nodetypes="cccccc" /><path
       style="fill:#a05a2c;stroke:#000000;stroke-width:0.865;stroke-linecap:butt;stroke-linejoin:miter;stroke-opacity:1;stroke-dasharray:none"
       d="m 11.448147,48.968891 c 18.897275,0.887174 37.794549,5.211129 56.691823,2.363879 6.576095,0.652527 11.824038,-1.532804 17.31807,-3.192316 L 84.500851,65.619117 64.061894,67.566293 10.878857,67.301901 Z"
       id="path6780"
       sodipodi:nodetypes="ccccccc" /><path
       style="fill:none;stroke:#2b0000;stroke-width:3.965;stroke-linecap:butt;stroke-linejoin:miter;stroke-dasharray:none;stroke-opacity:1"
       d="M 17.033883,87.255604 C -1.4215533,82.200427 -0.55775863,56.29591 19.925969,56.953079 40.409695,57.610248 35.489318,92.310781 17.033883,87.255604 Z"
       id="path6782"
       sodipodi:nodetypes="zzz" /><path
       sodipodi:type="star"
       style="opacity:0.9;fill:#2b0000;fill-opacity:1;stroke:#2b0000;stroke-width:2.465;stroke-dasharray:none"
       id="path8100"
       inkscape:flatsided="false"
       sodipodi:sides="14"
       sodipodi:cx="11.995655"
       sodipodi:cy="68.692337"
       sodipodi:r1="15.043927"
       sodipodi:r2="0.13592014"
       sodipodi:arg1="-0.028391851"
       sodipodi:arg2="-0.93034338"
       inkscape:rounded="0"
       inkscape:randomized="0"
       d="M 27.033519,68.265269 12.076875,68.583353 25.7296,74.832247 12.116118,68.629386 21.705505,80.18314 12.131502,68.687887 15.758255,83.258139 12.11998,68.74727 9.0657756,83.448202 12.083834,68.795772 2.953595,80.715685 12.030222,68.823788 -1.3676947,75.601796 11.969765,68.825769 -3.0422091,69.119405 11.914435,68.801321 -1.7382901,62.552427 11.875192,68.755288 2.2858052,57.201534 11.859808,68.696787 8.2330554,54.126535 11.87133,68.637404 14.925535,53.936472 11.907477,68.588902 21.037715,56.668989 11.961088,68.560886 25.359005,61.782878 12.021546,68.558906 Z"
       transform="translate(5.935179,3.5592744)" /><path
       style="fill:none;stroke:#2b0000;stroke-width:4.065;stroke-linecap:butt;stroke-linejoin:miter;stroke-dasharray:none;stroke-opacity:1"
       d="M 60.570961,62.006006 C 78.05136,61.754564 74.950822,87.794483 58.813157,87.929137 42.675492,88.063791 43.090562,62.257448 60.570961,62.006006 Z"
       id="path8042"
       sodipodi:nodetypes="zzz" /><path
       sodipodi:type="star"
       style="opacity:0.9;fill:#2b0000;fill-opacity:1;stroke:#2b0000;stroke-width:2.465;stroke-dasharray:none"
       id="path8100-3"
       inkscape:flatsided="false"
       sodipodi:sides="14"
       sodipodi:cx="11.995655"
       sodipodi:cy="68.692337"
       sodipodi:r1="15.043927"
       sodipodi:r2="0.13592014"
       sodipodi:arg1="-0.028391851"
       sodipodi:arg2="-0.93034338"
       inkscape:rounded="0"
       inkscape:randomized="0"
       d="M 27.033519,68.265269 12.076875,68.583353 25.7296,74.832247 12.116118,68.629386 21.705505,80.18314 12.131502,68.687887 15.758255,83.258139 12.11998,68.74727 9.0657756,83.448202 12.083834,68.795772 2.953595,80.715685 12.030222,68.823788 -1.3676947,75.601796 11.969765,68.825769 -3.0422091,69.119405 11.914435,68.801321 -1.7382901,62.552427 11.875192,68.755288 2.2858052,57.201534 11.859808,68.696787 8.2330554,54.126535 11.87133,68.637404 14.925535,53.936472 11.907477,68.588902 21.037715,56.668989 11.961088,68.560886 25.359005,61.782878 12.021546,68.558906 Z"
       transform="matrix(0.92051556,0,0,0.92051556,48.736594,11.679636)" /></g></svg>
